<svg width="58" height="126" viewBox="0 0 58 126" fill="none" xmlns="http://www.w3.org/2000/svg">
<rect width="58" height="126" fill="#1E1E1E"/>
<g clip-path="url(#clip0_0_1)">
<rect width="58" height="126" fill="white"/>
<rect x="26" y="2" width="5" height="122" rx="2.5" stroke="#F55376" stroke-width="4"/>
<circle cx="29" cy="91" r="23.5" fill="#FFCC80" stroke="#FFCC80" stroke-width="3"/>
<rect x="38.91" y="51.927" width="3" height="26" rx="1.5" transform="rotate(4 38.91 51.927)" fill="#F55376"/>
<rect x="34.8879" y="108.84" width="3" height="10.944" rx="1.5" transform="rotate(4 34.8879 108.84)" fill="#F55376"/>
<rect x="48" y="92" width="3" height="10" rx="1.5" transform="rotate(-90 48 92)" fill="#F55376"/>
<rect y="92" width="3" height="10" rx="1.5" transform="rotate(-90 0 92)" fill="#F55376"/>
<rect x="15" y="52.2093" width="3" height="26" rx="1.5" transform="rotate(-4 15 52.2093)" fill="#F55376"/>
<rect x="19.1182" y="108.755" width="3" height="11.3496" rx="1.5" transform="rotate(-4 19.1182 108.755)" fill="#F55376"/>
<rect x="22.5" y="75" width="12" height="7" rx="3" fill="#7DEBF5"/>
<rect x="22.5" y="75" width="12" height="7" rx="3" stroke="#F55376"/>
<rect x="24" y="77.5" width="9" height="2" rx="1" fill="#F55376"/>
<rect x="24" y="77.5" width="9" height="2" rx="1" stroke="#F55376"/>
<rect x="25.5" y="110" width="6" height="9" rx="3" fill="#7DEBF5"/>
<rect x="25.5" y="110" width="6" height="9" rx="3" stroke="#F55376"/>
<rect x="32" y="8" width="2" height="3" rx="1" fill="#D9D9D9"/>
<rect x="23" y="14" width="2" height="3" rx="1" fill="#D9D9D9"/>
<rect x="32" y="20" width="2" height="3" rx="1" fill="#D9D9D9"/>
<rect x="23" y="28" width="2" height="3" rx="1" fill="#D9D9D9"/>
<rect x="32" y="34" width="2" height="3" rx="1" fill="#D9D9D9"/>
<rect x="23" y="42" width="2" height="3" rx="1" fill="#D9D9D9"/>
<rect x="32" y="48" width="2" height="3" rx="1" fill="#D9D9D9"/>
<rect x="23" y="56" width="2" height="3" rx="1" fill="#D9D9D9"/>
<rect x="29.5689" y="9.00803" width="1" height="70.1816" rx="0.5" transform="rotate(-0.601738 29.5689 9.00803)" fill="#6C19FF"/>
<rect x="26.7341" y="9" width="1" height="70.0328" rx="0.5" transform="rotate(0.6 26.7341 9)" fill="#6C19FF"/>
<rect width="1" height="34.2577" rx="0.5" transform="matrix(0.999644 0.0266688 0.0266688 -0.999644 29.4416 112.507)" fill="#6C19FF"/>
<rect width="1" height="34.3431" rx="0.5" transform="matrix(0.999639 -0.0268643 -0.0268643 -0.999639 26.9002 112.525)" fill="#6C19FF"/>
</g>
<defs>
<clipPath id="clip0_0_1">
<rect width="58" height="126" fill="white"/>
</clipPath>
</defs>
</svg>
